<svg xmlns="http://www.w3.org/2000/svg" width="136" height="41.854" viewBox="0 0 136 41.854">
  <g id="Logo" transform="translate(-120 -50)">
    <g id="XMLID_2_" transform="translate(94.5 32.013)">
      <path id="XMLID_13_" d="M45.865,33.894a17.28,17.28,0,0,0-4.673-.594,20,20,0,0,0-4.673.594C30.173,35.616,25.5,40.663,25.5,46.6c0,6.769,5.928,12.351,13.6,13.241L40.983,36.8l.139-1.781.139,1.781,1.953,23.039c7.741-.831,13.67-6.413,13.67-13.241C56.884,40.663,52.211,35.556,45.865,33.894ZM30.87,53.607a1.865,1.865,0,1,1,2.162-1.841A2.078,2.078,0,0,1,30.87,53.607Zm.837-10.272a1.865,1.865,0,1,1,2.162-1.841A2.031,2.031,0,0,1,31.707,43.335Zm4.324,5.106A1.865,1.865,0,1,1,38.193,46.6,2.031,2.031,0,0,1,36.031,48.441Zm1.744-9.679a.962.962,0,1,1,1.116-.95A1.03,1.03,0,0,1,37.775,38.763Zm6.416,1.247a2.19,2.19,0,1,1,2.162,1.841A2.031,2.031,0,0,1,44.191,40.01ZM45.237,46.6a1.13,1.13,0,1,1,1.116.95A.993.993,0,0,1,45.237,46.6ZM48.1,54.2a.962.962,0,1,1,1.116-.95A1.03,1.03,0,0,1,48.1,54.2Zm5.579-8.313a2.19,2.19,0,1,1-2.162-1.841A2.031,2.031,0,0,1,53.676,45.888Z" fill="#6b6b6b"/>
      <path id="XMLID_14_" d="M53.8,19.9a2.689,2.689,0,0,1,1.9-.7.608.608,0,0,0,.2-1.2A3.9,3.9,0,0,0,53,19c-1.5,1.2-2.3,3.5-2.6,6.7a6.051,6.051,0,0,0-2.4-.4,7.772,7.772,0,0,0-1.6.2c-.3-3.1-1.2-5.2-2.6-6.5a3.9,3.9,0,0,0-2.9-1c-.3.1-.6.4-.5.7s.4.6.7.5a2.689,2.689,0,0,1,1.9.7c.9.7,1.9,2.4,2.2,5.9A6.923,6.923,0,0,0,41,32.2a1.949,1.949,0,0,0,.1.8,22.792,22.792,0,0,1,7-1,26.9,26.9,0,0,1,7,1c0-.3.1-.6.1-.8a6.975,6.975,0,0,0-3.4-6C51.8,22.4,52.9,20.7,53.8,19.9Z" transform="translate(-6.996)" fill="#6b6b6b"/>
    </g>
    <text id="Skoolit." transform="translate(164 85.842)" fill="#6b6b6b" font-size="25" font-family="Ubuntu-Bold, Ubuntu" font-weight="700"><tspan x="0" y="0">Skoolit.</tspan></text>
  </g>
</svg>
