<svg xmlns="http://www.w3.org/2000/svg" xmlns:xlink="http://www.w3.org/1999/xlink" width="858.504" height="639.85" viewBox="0 0 858.504 639.85">
  <defs>
    <linearGradient id="linear-gradient" x1="0.5" y1="1" x2="0.5" gradientUnits="objectBoundingBox">
      <stop offset="0" stop-color="gray" stop-opacity="0.251"/>
      <stop offset="0.54" stop-color="gray" stop-opacity="0.122"/>
      <stop offset="1" stop-color="gray" stop-opacity="0.102"/>
    </linearGradient>
  </defs>
  <g id="undraw_studying_s3l7" transform="translate(-0.012 -0.057)">
    <path id="Caminho_61" data-name="Caminho 61" d="M914.89,351.376c-.154.908-.308,1.816-.478,2.724-5.5,30.916-14.469,60.721-27.811,88.087q-.657,1.362-1.337,2.724a251.747,251.747,0,0,1-31.337,48.327c-6.647,8.017-13.893,15.628-22.51,21.124-12.078,7.7-26.2,10.829-40.076,13.391-14.42,2.667-29.027,4.864-43.6,7.3q-7.749,1.264-15.4,2.651c-14.08,2.545-28.055,5.488-41.7,9.387-16.868,4.864-33.234,11.129-48.635,20.005q-1.848,1.054-3.656,2.164c-1.208.729-2.432,1.475-3.607,2.237s-2.359,1.516-3.526,2.286l-1.8,1.216c-.592.389-1.175.811-1.759,1.2-1.735,1.183-3.445,2.432-5.155,3.631l-.065.049q-1.69,1.216-3.364,2.432c-6.314,4.677-12.491,9.573-18.644,14.485l-3.883,3.1q-3.007,2.383-6.015,4.758c-1.175.932-2.367,1.856-3.55,2.78-.859.673-1.71,1.346-2.586,2.01-4.385,3.38-8.827,6.687-13.359,9.849-1.078.754-2.172,1.508-3.242,2.245a170.953,170.953,0,0,1-28.808,15.871l-.13.057a114.293,114.293,0,0,1-15.3,5.277,91.626,91.626,0,0,1-9.014,1.954,79.666,79.666,0,0,1-24.439.422c-15.961-2.262-30.916-9.727-46.836-12.224-32.845-5.1-64.742,11.348-95.65,24.261q-11.348,4.75-22.948,8.917-7.684,2.772-15.442,5.277a486.175,486.175,0,0,1-96.89,20.727,223.888,223.888,0,0,1-41.137,1.111,138.945,138.945,0,0,1-15.4-2c-17.322-3.242-33.494-10.124-46.52-22.7C98.456,658.2,90.821,644.753,85,630.721q-3.51-8.454-6.185-17.3a192.919,192.919,0,0,1-6.3-28.233c-.316-2.156-.6-4.321-.811-6.485q-.632-5.569-.94-11.186a193.731,193.731,0,0,1,5.763-59.173c5.52-21.391,14.728-41.875,18.781-63.469.17-.908.324-1.816.478-2.724q.811-4.864,1.232-9.905c2.043-26.409-5.861-52.259-12.1-78.149-.219-.908-.438-1.816-.648-2.724q-1.013-4.3-1.921-8.617c-5.78-27.382-7.36-56.685-2.229-84.01.162-.908.349-1.824.535-2.724C84.117,239.1,90.229,223,99.591,208.664c9.605-14.72,22.218-26.968,35.666-37.733q9.849-7.863,20.37-14.712,7.563-4.912,15.4-9.3c42.224-23.507,90.4-34.993,138.027-32.424q3.785.195,7.555.519,3.956.34,7.887.811c30.665,3.542,60.5,12.321,90.162,21.926q14.907,4.864,29.765,9.727,6.614,2.156,13.221,4.256c21.6,6.817,43.561,12.969,65.723,17.606q7.709,1.621,15.4,2.959a364.021,364.021,0,0,0,53.977,5.561q10.538.259,21.075-.219,5.326-.243,10.659-.713c36.728-3.145,72.143-13.691,107.7-23.6,5.139-1.435,10.286-2.861,15.4-4.239,6.76-1.816,13.529-3.575,20.322-5.2,42.3-10.157,79.989-4.32,119.311,16.625,8.916,4.758,17.833,10.5,23.345,19.381s6.849,19.884,7.871,30.47c1.443,15.061,2.432,30.332,2.748,45.669,0,.908,0,1.816.057,2.724A485.892,485.892,0,0,1,914.89,351.376Z" transform="translate(-70.44 -66.427)" fill="#6b6b6b" opacity="0.1"/>
    <path id="Caminho_62" data-name="Caminho 62" d="M636.605,442.261h-2.764v2.724h3.129Zm-31.329,0a.176.176,0,0,0,0,.065l-.243,2.253v.405h23.993v-.162l1.71-2.561Zm-64.158,0V354.175h27.56c-.292-.243-.592-.486-.9-.713l-.405-.308c-.17-.138-.34-.267-.519-.389s-.6-.43-.916-.64-.511-.349-.811-.519l-.186-.122H541.118V346.66l-.64.308-.681.381h-.049l-.146.089-.422.276c-.146.089-.292.178-.43.276-.422.284-.811.592-1.256.908l-.405.324c-.276.211-.535.43-.811.648-1.078.884-2.14,1.808-3.242,2.659-.276.219-.551.43-.811.632a20.932,20.932,0,0,1-1.832,1.2,8.7,8.7,0,0,1-.811.446l-.454.211-.413.178h0a17.22,17.22,0,0,1-3.015.956v86.109H484.36a1.247,1.247,0,0,0,.081.284c.227.811.454,1.621.673,2.432h40.594V539.4h.632l.721.049,1.313.1,2.124.211.956.113,1.054.13h.154c.608.081,1.224.178,1.848.276l.4.065.892.146,1.281.227h0l3.072-.162h0l.422.089a2.459,2.459,0,0,1,.519.105V444.985h63.883v-.405l.243-2.253a.178.178,0,0,1,0-.065Zm95.487,0h-2.764v2.724h3.129Zm-33.056,0-.276,2.724h26.693l1.816-2.724Zm-62.415,0V354.175h27.56c-.292-.243-.592-.486-.9-.713l-.405-.308c-.17-.138-.34-.267-.519-.389s-.6-.43-.916-.64-.511-.349-.811-.519l-.186-.122H541.118V346.66l-.64.308-.681.381h-.049l-.146.089-.422.276c-.146.089-.292.178-.43.276-.422.284-.811.592-1.256.908l-.405.324c-.276.211-.535.43-.811.648-1.078.884-2.14,1.808-3.242,2.659-.276.219-.551.43-.811.632a20.932,20.932,0,0,1-1.832,1.2,8.7,8.7,0,0,1-.811.446l-.454.211-.413.178h0a17.22,17.22,0,0,1-3.015.956v86.109H484.36a1.247,1.247,0,0,0,.081.284c.227.811.462,1.621.681,2.432h40.586v94.417l.632.041.721.049,1.313.1,2.124.211.956.113,1.054.13h.154c.608.081,1.224.178,1.848.276l.4.065.892.146,1.281.227h0l3.072-.162h0l.422.089a2.459,2.459,0,0,1,.519.105v-95.8h62.18l.292-2.724ZM749.99,258.825H923.643c0-.908,0-1.816-.057-2.724H749.99V149.152c-5.155,1.378-10.3,2.8-15.4,4.239V256.1H545.722l-.478-.519.721-.811h0l70.246-77.1q-10.538.486-21.075.219L541.118,237.15v-64.79q-7.733-1.337-15.4-2.959v64.766l-78.976-86.628c-9.914-3.242-19.827-6.541-29.765-9.727L524.322,255.583l-.478.519H326.814V115.869q-3.939-.446-7.887-.811-3.769-.332-7.555-.519V256.1H173.345V147q-7.855,4.377-15.4,9.3V256.1H82.875c-.186.9-.373,1.816-.535,2.724h75.539v92.626H86.523c.211.908.43,1.816.648,2.724h70.74v88.087H98.017c-.154.908-.308,1.816-.478,2.724h60.373v246.3a138.974,138.974,0,0,0,15.4,2v-248.3h138.06V671.448q7.765-2.521,15.442-5.277V444.985h198.87V642.85a114.3,114.3,0,0,0,15.3-5.277l.13-.057V444.985H734.541v92.788q7.692-1.386,15.4-2.651V444.985H887.474q.681-1.362,1.337-2.724H749.99V354.175H916.672c.17-.908.324-1.816.478-2.724H749.99Zm-576.637,0H311.372v92.626H173.345Zm0,183.436V354.175H311.372v88.087ZM326.822,258.825H525.684v92.626H326.814Zm0,183.436V354.175H525.684v88.087Zm407.727,0H541.118V354.175H734.541Zm0-90.786H541.118v-90.17l2.715-2.48H734.541ZM605.284,442.261a.176.176,0,0,0,0,.065l-.243,2.253v.405h23.993v-.162l1.71-2.561Zm31.329,0h-2.764v2.724h3.129Zm-95.487,0V354.175h27.56c-.292-.243-.592-.486-.9-.713l-.405-.308c-.17-.138-.34-.267-.519-.389s-.6-.43-.916-.64-.511-.349-.811-.519l-.186-.122H541.118V346.66l-.64.308-.681.381h-.049l-.146.089-.422.276c-.146.089-.292.178-.43.276-.422.284-.811.592-1.256.908l-.405.324c-.276.211-.535.43-.811.648-1.078.884-2.14,1.808-3.242,2.659-.276.219-.551.43-.811.632a20.932,20.932,0,0,1-1.832,1.2,8.7,8.7,0,0,1-.811.446l-.454.211-.413.178h0a17.22,17.22,0,0,1-3.015.956v86.109H484.36a1.247,1.247,0,0,0,.081.284c.227.811.454,1.621.673,2.432h40.594V539.4h.632l.721.049,1.313.1,2.124.211.956.113,1.054.13h.154c.608.081,1.224.178,1.848.276l.4.065.892.146,1.281.227h0l3.072-.162h0l.422.089a2.459,2.459,0,0,1,.519.105V444.985h63.883v-.405l.243-2.253a.178.178,0,0,1,0-.065Z" transform="translate(-72.692 -66.502)" fill="#6b6b6b" opacity="0.1"/>
    <path id="Caminho_63" data-name="Caminho 63" d="M275.287,212.508h1.232a2.951,2.951,0,0,1-1.467-2.375h0c0-1.881,2.3-3.413,5.115-3.413h35.788c2.813,0,5.115,1.532,5.115,3.413h0c0,1.872-2.3,3.413-5.115,3.413h-1.192a2.959,2.959,0,0,1,1.459,2.375c0,1.621-1.67,2.951-3.907,3.315h10.3c2.8,0,5.107,1.532,5.107,3.413s-2.3,3.4-5.107,3.4H286.789c-2.8,0-5.107-1.532-5.107-3.4,0-1.621,1.67-2.951,3.907-3.315h-10.3c-2.8,0-5.107-1.532-5.107-3.413S272.466,212.508,275.287,212.508Z" transform="translate(-108.27 -83.962)" fill="#6b6b6b" opacity="0.1"/>
    <path id="Caminho_64" data-name="Caminho 64" d="M753.807,252.578h1.2a2.959,2.959,0,0,1-1.467-2.383h0c0-1.872,2.3-3.4,5.115-3.4h35.788c2.813,0,5.115,1.532,5.115,3.4h0c0,1.881-2.3,3.413-5.115,3.413H793.25a2.967,2.967,0,0,1,1.459,2.383c0,1.621-1.67,2.942-3.907,3.307h10.3c2.8,0,5.107,1.54,5.107,3.413s-2.3,3.413-5.107,3.413H765.325c-2.8,0-5.107-1.532-5.107-3.413,0-1.621,1.67-2.951,3.907-3.307H753.807c-2.8,0-5.107-1.54-5.107-3.413S751.018,252.578,753.807,252.578Z" transform="translate(-198.907 -91.551)" fill="#6b6b6b" opacity="0.1"/>
    <path id="Caminho_65" data-name="Caminho 65" d="M207.557,424.046h1.2a2.967,2.967,0,0,1-1.459-2.383h0c0-1.872,2.294-3.413,5.107-3.413h35.788c2.813,0,5.115,1.54,5.115,3.413h0c0,1.881-2.3,3.413-5.115,3.413H247a2.967,2.967,0,0,1,1.459,2.383c0,1.621-1.67,2.942-3.907,3.307h10.3c2.813,0,5.107,1.532,5.107,3.413s-2.294,3.413-5.107,3.413h-35.8c-2.8,0-5.107-1.54-5.107-3.413,0-1.621,1.678-2.951,3.907-3.315h-10.3c-2.8,0-5.107-1.532-5.107-3.4S204.752,424.046,207.557,424.046Z" transform="translate(-95.442 -124.028)" fill="#6b6b6b" opacity="0.1"/>
    <path id="Caminho_66" data-name="Caminho 66" d="M705.88,713.44q-3.007,2.383-6.015,4.758c-1.175.932-2.367,1.856-3.55,2.78-.859.673-1.71,1.346-2.586,2.01-4.385,3.38-8.827,6.687-13.359,9.849-1.078.754-2.172,1.508-3.242,2.245a170.946,170.946,0,0,1-28.808,15.871l-.13.057V713.44Z" transform="translate(-179.869 -179.94)" fill="#65617d"/>
    <path id="Caminho_67" data-name="Caminho 67" d="M744.137,485.124l.908-28.006c-.543-.421-1.094-.811-1.621-1.2A149.279,149.279,0,0,0,742,430.944c-3.664-28.006-27.455-28.614-34.166-22.834a16.211,16.211,0,0,1-2.894,1.994c.608-4,1.362-8,1.9-11.956,2.934-21.335-1.621-45.336-18.173-59.124-6.931-5.763-15.4-9.306-23.013-14.129-13.634-8.6-24.407-21.3-38.195-29.676s-33.153-11.51-45.182-.746c-4.661,4.166-7.668,9.946-12.451,13.966-8.917,7.49-22.818,7.984-30.6,16.35h0c-.389.422-.762.851-1.119,1.305-6.485,8.317-4.71,20.111-2.643,30.43,2.489,12.418,1.459,22.372,12.11,25.939.041.494.073.989.13,1.475a52.615,52.615,0,0,0,23.15,37.871l-1.727.616c-4.6,1.621-8.746,3.194-11.4,4.272-9.727,3.964-30.2,9.127-30.2,9.127s-.486,5.836-.4,14.445c-6.825,7.417-18.214,20.451-21.562,28.176-4.864,11.267-32.343,43.537-39.662,48.408S450.655,537.5,450.655,537.5s-11.591,6.4-17.079,7c-3.8.422-15.563-1.832-15.563-1.832s-46.974-57.552-43.926-13.391,40.57,45.661,40.57,45.661l37.83-.608s20.443,2.74,29.595-4.864c7.814-6.485,48.311-42.061,61.321-58.2.3.332.6.657.916.973,0,0,5.18-6.7,5.8,0s-3.364,9.727-1.224,12.159,8.544,10.959,8.844,14.307-8.536,17.022,6.4,27.4c.235.162.486.316.762.47,2.667,6.071,11.146,12.013,11.146,12.013l45.758-.608,86.336,6.7s2.57-2.262,6.047-5.958c4.645,4.264,11.089,7.919,18.352,5.674,0,0,10.376-12.475,10.684-20.694,0,0-6.712-17.355-9.727-22.526s2.14-16.439,2.14-16.439,3.656-10.959,5.8-10.959.608-7.3.608-7.3a8.868,8.868,0,0,1-.916-8.219C742.913,493.651,744.137,485.124,744.137,485.124Z" transform="translate(-127.925 -99.28)" fill="url(#linear-gradient)"/>
    <path id="Caminho_68" data-name="Caminho 68" d="M745.065,505.034l-3.242,3.794h0l-13.1,15.255-17.112,1.038-27.39,1.686s-36.93-44.5-29.992-54.188c2.521-3.494,2.934-8.106,2.432-12.459-.065-.6-.154-1.2-.259-1.791a51.787,51.787,0,0,0-4.312-13.294l.908-.413.584-.267,32.294-14.737,7.992-3.648a21.576,21.576,0,0,0,2.189,6.306c.154.308.324.616.5.908,11.016,18.238,46.341,6.7,46.341,6.7Z" transform="translate(-180.608 -125.497)" fill="#ee8e9e"/>
    <path id="Caminho_69" data-name="Caminho 69" d="M812.561,484c-.243,11.04-2.043,15.807-2.043,15.807l-45.709,6.963L763.1,494.9l-6.768-46.86,6.355-6.355a16.965,16.965,0,0,0,14.534-3.631c6.655-5.755,30.267-5.147,33.9,22.7A154.118,154.118,0,0,1,812.561,484Z" transform="translate(-200.352 -127.229)" fill="#ee8e9e"/>
    <path id="Caminho_70" data-name="Caminho 70" d="M806.336,643.825s10.286-12.41,10.594-20.581l-10.295-17.257-9.079-9.727L780.6,628.992S791.8,648.365,806.336,643.825Z" transform="translate(-204.949 -157.744)" fill="#dfe5ee"/>
    <path id="Caminho_71" data-name="Caminho 71" d="M806.336,643.825s10.286-12.41,10.594-20.581l-10.295-17.257-9.079-9.727L780.6,628.992S791.8,648.365,806.336,643.825Z" transform="translate(-204.949 -157.744)" opacity="0.1"/>
    <path id="Caminho_72" data-name="Caminho 72" d="M587.178,716.02c-.859.673-1.71,1.346-2.586,2.01-4.385,3.38-8.827,6.687-13.359,9.849-1.078.754-2.172,1.508-3.242,2.245H309.414l-76.5-2.74-61.524-.519-15.4-.811L79.141,722a192.921,192.921,0,0,1-6.331-28.257c-.316-2.156-.6-4.321-.811-6.485l83.953,4.653,15.4.867,138.027,7.7,15.442.859,198.87,11.105,15.3.859h.13Z" transform="translate(-70.733 -174.981)" fill="#d48a9b"/>
    <path id="Caminho_73" data-name="Caminho 73" d="M690.666,643.587c-16.868,4.864-33.234,11.129-48.635,20.005-1.224.705-2.432,1.427-3.656,2.164s-2.432,1.475-3.607,2.237-2.359,1.516-3.526,2.286l-1.8,1.216-1.759,1.2c-1.735,1.192-3.445,2.432-5.155,3.631l-.065.049q-1.69,1.216-3.364,2.432c-6.314,4.677-12.491,9.573-18.644,14.485q-1.945,1.556-3.9,3.1l-6,4.758c-1.175.932-2.367,1.856-3.55,2.78-.859.673-1.71,1.346-2.586,2.01l-45.393-2.164h-.13l-15.3-.713-198.959-9.427-15.442-.738-138.027-6.558-15.4-.738-83.175-3.915c-.316-2.156-.6-4.32-.811-6.485q-.632-5.569-.94-11.186l84.917-29.992,15.4-5.455,13.991-4.945,25.493,1.329,58.922,3.023h0l39.654,2.083,15.442.811,9.865.519h0l2.359.13h0l83.021,4.337h0l.875.057h0l37.044,1.929h.665l3.7.186h0l12.629.665,15.79.811h0l5.2.276h0l.981.057,7.36.381h0l2.1.105h0l7.028.373h0l2.8.154h.673l6.574.349,10.181.535h.049l3.161.162h.34l1.889.105,4.637.243h0l4.053.211h.041l4.547.235h.073l3.445.186h0l2.643.138,9.379.494h0l1.686.089h.584l.811.049h0l2.748.146h0l1.232.065h0l9.565.494h.875l14.12-.122h.1l53.685-.438h5.309l17.282-.138h2.578Z" transform="translate(-70.513 -162.929)" fill="#efc6cd"/>
    <path id="Caminho_74" data-name="Caminho 74" d="M388.2,647.5l4.993,26.563,135.758-2.043s10.213,2.951,9.987-5.22c0,0,20.662-19.527,125.317,3.177L624.075,638.42l-109.835,5.9-127.36-3.4Z" transform="translate(-130.375 -165.73)" fill="#6b6b6b"/>
    <path id="Caminho_75" data-name="Caminho 75" d="M391.59,641.438l4.766,28.833s116.725-3.4,135.077-.227l-13.869-26.336S446.986,637.125,391.59,641.438Z" transform="translate(-131.267 -166.024)" fill="#fff"/>
    <path id="Caminho_76" data-name="Caminho 76" d="M391.59,641.438l4.766,28.833s116.725-3.4,135.077-.227l-13.869-26.336S446.986,637.125,391.59,641.438Z" transform="translate(-131.267 -166.024)" opacity="0.1"/>
    <path id="Caminho_77" data-name="Caminho 77" d="M393.74,641.332l4.7,26.814s115.242-3.161,133.4-.211l-13.675-24.488S448.439,637.319,393.74,641.332Z" transform="translate(-131.674 -166.023)" fill="#fff"/>
    <path id="Caminho_78" data-name="Caminho 78" d="M396.35,642.369l4.58,25.08s112.713-2.959,130.505-.195L518.06,644.338S449.857,638.583,396.35,642.369Z" transform="translate(-132.168 -166.234)" opacity="0.1"/>
    <path id="Caminho_79" data-name="Caminho 79" d="M397.47,641.243l4.6,25.128s112.713-2.959,130.5-.195l-13.407-22.94S450.977,637.49,397.47,641.243Z" transform="translate(-132.38 -166.024)" fill="#fff"/>
    <path id="Caminho_80" data-name="Caminho 80" d="M295.3,557.41s5.9,7.709-2.715,19.357-15.734,21.473-12.856,28.735c0,0,12.969-21.627,23.588-21.886S306.948,570.412,295.3,557.41Z" transform="translate(-109.956 -150.386)" fill="#6b6b6b"/>
    <path id="Caminho_81" data-name="Caminho 81" d="M295.378,557.41a9.372,9.372,0,0,1,1.208,2.432c10.327,12.159,15.831,23.507,5.9,23.75-9.249.259-20.338,16.8-23,20.978q.138.47.316.948s12.969-21.627,23.588-21.886S307.026,570.412,295.378,557.41Z" transform="translate(-110.034 -150.386)" opacity="0.1"/>
    <path id="Caminho_82" data-name="Caminho 82" d="M312.3,569.133c0,2.707-.308,4.912-.681,4.912s-.681-2.2-.681-4.912.381-1.443.754-1.443S312.3,566.418,312.3,569.133Z" transform="translate(-115.991 -152.277)" fill="#ffd037"/>
    <path id="Caminho_83" data-name="Caminho 83" d="M316.174,573.093c-2.383,1.305-4.458,2.091-4.637,1.759s1.621-1.621,3.988-2.951,1.443-.357,1.621,0S318.557,571.8,316.174,573.093Z" transform="translate(-116.102 -153.002)" fill="#ffd037"/>
    <path id="Caminho_84" data-name="Caminho 84" d="M257.567,557.41s-5.9,7.709,2.724,19.357,15.725,21.473,12.856,28.735c0,0-13.01-21.627-23.6-21.886S245.919,570.412,257.567,557.41Z" transform="translate(-103.374 -150.386)" fill="#6b6b6b"/>
    <path id="Caminho_85" data-name="Caminho 85" d="M257.567,557.41a9.728,9.728,0,0,0-1.208,2.432c-10.327,12.159-15.831,23.507-5.9,23.75,9.249.259,20.346,16.8,23,20.978a9.751,9.751,0,0,1-.316.948s-13.01-21.627-23.6-21.886S245.919,570.412,257.567,557.41Z" transform="translate(-103.374 -150.386)" opacity="0.1"/>
    <path id="Caminho_86" data-name="Caminho 86" d="M247.13,569.133c0,2.707.308,4.912.681,4.912s.681-2.2.681-4.912-.381-1.443-.754-1.443S247.13,566.418,247.13,569.133Z" transform="translate(-103.905 -152.277)" fill="#ffd037"/>
    <path id="Caminho_87" data-name="Caminho 87" d="M242.152,573.093c2.383,1.305,4.466,2.091,4.645,1.759s-1.621-1.621-3.988-2.951-1.443-.357-1.621,0S239.769,571.8,242.152,573.093Z" transform="translate(-102.688 -153.002)" fill="#ffd037"/>
    <path id="Caminho_88" data-name="Caminho 88" d="M304.17,603.069l-.292,2.432-.413,3.4-.17,1.419-.413,3.4-.178,1.419-.422,3.4-4.718,38.681c-.422,3.453-6.063,6.144-12.872,6.144H260.2c-6.809,0-12.443-2.691-12.864-6.144l-4.726-38.681-.413-3.4-.17-1.419-.422-3.4-.17-1.419-.413-3.4-.3-2.432c-.235-1.953,2.813-3.6,6.671-3.6h50.143C301.382,599.47,304.438,601.115,304.17,603.069Z" transform="translate(-102.687 -158.352)" fill="#65617d"/>
    <path id="Caminho_89" data-name="Caminho 89" d="M233.536,551.59l-.413,3.4H171.063l-.413-3.4Z" transform="translate(-32.321 -104.466)" fill="#9d9cb5"/>
    <path id="Caminho_90" data-name="Caminho 90" d="M233.088,557.54l-.413,3.4H171.792l-.422-3.4Z" transform="translate(-32.457 -105.593)" fill="#9d9cb5"/>
    <path id="Caminho_91" data-name="Caminho 91" d="M232.635,563.49l-.413,3.4H172.513l-.413-3.4Z" transform="translate(-32.595 -106.72)" fill="#9d9cb5"/>
    <path id="Caminho_92" data-name="Caminho 92" d="M407.75,598.751s-15.742-15.134-15.134,4.539S407.75,598.751,407.75,598.751Z" transform="translate(-131.458 -157.163)" fill="#ee8e9e"/>
    <path id="Caminho_93" data-name="Caminho 93" d="M545.471,543.49c-.349,1.524-2.043,4.053-4.685,7.222-13.65,16.439-52.486,50.605-60.1,56.944-9.079,7.571-29.36,4.864-29.36,4.864l-37.53.608s-37.23-1.516-40.262-45.393,43.585,13.318,43.585,13.318,11.672,2.237,15.442,1.816c5.447-.6,16.949-6.955,16.949-6.955s7.871-5.755,15.134-10.594,34.507-36.93,39.354-48.133c3.072-7.109,12.969-18.733,19.8-26.271,3.923-4.337,6.833-7.3,6.833-7.3S547.587,534.1,545.471,543.49Z" transform="translate(-127.82 -136.409)" fill="#ee8e9e"/>
    <path id="Caminho_94" data-name="Caminho 94" d="M580.617,543.483c-.349,1.524-2.043,4.053-4.685,7.222-13.78-14.031-16.658-42.029-16.982-59.83,3.923-4.337,6.833-7.3,6.833-7.3S582.733,534.1,580.617,543.483Z" transform="translate(-162.966 -136.402)" opacity="0.1"/>
    <path id="Caminho_95" data-name="Caminho 95" d="M741.814,513.124h0l-13.091,15.255-17.112,1.038-27.39,1.686s-36.93-44.5-29.992-54.188c2.521-3.494,2.934-8.106,2.432-12.459-.065-.6-.154-1.2-.259-1.791a51.787,51.787,0,0,0-4.312-13.294l.908-.413.584-.267a58.123,58.123,0,0,1,2.967,12.41c.089.576.17,1.175.251,1.791.284,2.189.543,4.62.811,7.3,2.107,24.5,17.517,33.712,24.472,36.647a70.584,70.584,0,0,1,6.55,3.169,34.945,34.945,0,0,0,21.967,3.972c17.168-2.253,31.167-14.728,31.167-14.728l.073,12.28Z" transform="translate(-180.608 -129.793)" opacity="0.1"/>
    <path id="Caminho_96" data-name="Caminho 96" d="M725.068,607.413s-112.6-.308-127.441-10.594-6.047-23.912-6.355-27.244-6.655-11.8-8.771-14.234,1.816-5.447,1.208-12.1-5.747,0-5.747,0c-21.2-21.5-16.658-75.977-16.658-75.977s20.265-5.139,29.992-9.087c2.634-1.07,6.736-2.594,11.348-4.239l1.71-.616c11.891-4.256,26.028-9.062,26.028-9.062s2.715-1.921,5.447,3.826c1.248,2.643,2.5,6.9,3.51,13.7.089.576.17,1.175.251,1.791.284,2.189.543,4.62.811,7.3,2.107,24.5,17.517,33.712,24.472,36.647a70.561,70.561,0,0,1,6.55,3.169,34.945,34.945,0,0,0,21.967,3.972c17.168-2.254,31.167-14.728,31.167-14.728l.073,12.28.211,36.9Z" transform="translate(-163.335 -128.895)" fill="#dfe5ee"/>
    <path id="Caminho_97" data-name="Caminho 97" d="M728.795,585.635l-1.816,11.5s-44.8,11.194-62.351,14.526-55.4-.908-58.119,6.355,11.5,17.257,11.5,17.257l45.393-.608,85.663,6.663s32.691-28.76,22.1-48.741S728.795,585.635,728.795,585.635Z" transform="translate(-171.909 -154.942)" fill="#ee8e9e"/>
    <path id="Caminho_98" data-name="Caminho 98" d="M639.552,474.58s-20.589,16.949-16.649,25.128S639.552,474.58,639.552,474.58Z" transform="translate(-174.985 -134.697)" opacity="0.1"/>
    <path id="Caminho_99" data-name="Caminho 99" d="M607.581,512.29s-20.889,36.023-19.673,38.746,6.963,12.41,6.655,5.147S607.581,512.29,607.581,512.29Z" transform="translate(-168.442 -141.84)" opacity="0.1"/>
    <path id="Caminho_100" data-name="Caminho 100" d="M620.157,520.14s-4.864,22.4-9.687,31.783S620.157,520.14,620.157,520.14Z" transform="translate(-172.539 -143.327)" opacity="0.1"/>
    <path id="Caminho_101" data-name="Caminho 101" d="M689.067,433.254a52.364,52.364,0,0,1-39.8,26.928h-.1a52.275,52.275,0,0,1-36.849-9.646c12.159-4.393,27.738-9.678,27.738-9.678s2.715-1.921,5.447,3.826l40.87-18.644a21.668,21.668,0,0,0,2.691,7.214Z" transform="translate(-173.075 -125.503)" opacity="0.1"/>
    <path id="Caminho_102" data-name="Caminho 102" d="M690.408,389.532a52.13,52.13,0,0,1-6.89,25.987,52.746,52.746,0,0,1-7.806,10.392A52.145,52.145,0,0,1,643.969,441.6h-.105a51.13,51.13,0,0,1-5.82.332,52.364,52.364,0,0,1-52.032-46.464,50.849,50.849,0,0,1-.332-5.908,52.364,52.364,0,0,1,104.728,0Z" transform="translate(-168.029 -108.676)" fill="#ee8e9e"/>
    <path id="Caminho_103" data-name="Caminho 103" d="M755.869,518.027l4.864-7.3s26.636-31.783,52.688-11.5l-.908,27.852s-1.216,8.471-3.032,12.969a8.86,8.86,0,0,0,.908,8.179s1.516,7.3-.6,7.3-5.755,10.894-5.755,10.894-5.147,11.2-2.116,16.35,9.687,22.4,9.687,22.4-10.594-6.355-13.626-16.949c0,0-25.728-19.981-45.709-7.3Z" transform="translate(-199.583 -138.085)" opacity="0.1"/>
    <path id="Caminho_104" data-name="Caminho 104" d="M814.142,494.1c-.243,11.04-2.043,15.807-2.043,15.807l-45.709,6.963L764.68,505C770.662,498.763,792.418,478.92,814.142,494.1Z" transform="translate(-201.934 -137.335)" opacity="0.1"/>
    <path id="Caminho_105" data-name="Caminho 105" d="M755.869,516.027l4.864-7.3s26.636-31.783,52.688-11.5l-.908,27.852s-1.216,8.471-3.032,12.969a8.859,8.859,0,0,0,.908,8.179s1.516,7.3-.6,7.3-5.755,10.894-5.755,10.894-5.147,11.2-2.116,16.35,9.687,22.4,9.687,22.4-10.594-6.355-13.626-16.949c0,0-25.728-19.981-45.709-7.3Z" transform="translate(-199.583 -137.706)" fill="#dfe5ee"/>
    <path id="Caminho_106" data-name="Caminho 106" d="M799.952,496.61s-43.885,26.944-41.77,50.573C758.183,547.183,782.7,503.873,799.952,496.61Z" transform="translate(-200.689 -138.87)" opacity="0.1"/>
    <path id="Caminho_107" data-name="Caminho 107" d="M729.206,492.008l.211,36.9c-8.3.373-16.123-.705-22.307-6.079-4.3-3.745-6.809-8.916-8.106-14.51a51.4,51.4,0,0,1-1.054-13.723.742.742,0,0,1,0-.138c.511-10.189,2.853-20.378,1.621-30.5s-7.368-20.808-17.387-22.94c-1.978-.43-4.2-.584-5.609-2.035-1.556-1.621-1.483-4.142-1.313-6.387l.292-3.785c.073-.973.105-1.937.105-2.9a37.149,37.149,0,0,0-29.992-36.428l-.324-.057c-2.821-.567-5.755-1.127-8.576-.478-5.366,1.24-8.835,6.444-13.78,8.916-9.484,4.734-25.3-.446-35.228-2.075-.648-.105-1.265-.227-1.856-.365a50.842,50.842,0,0,1-.332-5.909A52.364,52.364,0,1,1,683.408,415.5c.154.308.324.616.5.908,11.016,18.238,46.341,6.7,46.341,6.7l2.124,65.082Z" transform="translate(-168.009 -108.67)" opacity="0.1"/>
    <path id="Caminho_108" data-name="Caminho 108" d="M621.727,388.2c4.912-2.48,8.382-7.684,13.78-8.916,2.813-.648,5.747-.089,8.584.47l.324.065a37.182,37.182,0,0,1,29.854,39.338l-.292,3.785c-.178,2.237-.251,4.774,1.321,6.379,1.4,1.451,3.623,1.621,5.6,2.026,10.019,2.14,16.155,12.767,17.387,22.948s-1.151,20.4-1.621,30.632,1.41,21.521,9.143,28.241c12.159,10.538,30.64,4.539,46.731,3.575-7.117,0-12.451-7.344-12.84-14.445s2.772-13.861,5.8-20.265,6.055-13.294,5.382-20.378c-.924-9.727-8.592-17.517-11.527-26.879-3.421-10.894-.122-22.591,1.427-33.915,2.91-21.205-1.621-45.077-18.036-58.784-6.874-5.731-15.28-9.257-22.834-14.056-13.537-8.584-24.212-21.173-37.9-29.522s-32.894-11.446-44.834-.746c-4.62,4.142-7.6,9.889-12.353,13.885-9.281,7.822-24.034,7.968-31.475,17.565-6.4,8.26-4.669,19.989-2.618,30.243,2.732,13.675,1.192,24.318,15.807,26.749C596.429,387.759,612.235,392.939,621.727,388.2Z" transform="translate(-164.844 -99.908)" fill="#603556"/>
    <path id="Caminho_109" data-name="Caminho 109" d="M742.124,518.833c-11.713,1.435-23.321,2.172-31.848-5.22-7.733-6.72-9.638-18-9.143-28.241s2.861-20.467,1.621-30.64-7.368-20.8-17.387-22.94c-1.978-.422-4.191-.576-5.6-2.026-1.564-1.621-1.5-4.15-1.321-6.387l.292-3.785a37.174,37.174,0,0,0-29.854-39.33l-.324-.065c-2.837-.559-5.771-1.119-8.584-.47-5.366,1.24-8.835,6.485-13.78,8.917-9.492,4.742-25.29-.438-35.236-2.067-14.591-2.391-13.067-13.051-15.807-26.749-1.532-7.652-2.886-16.131-.811-23.377a12.745,12.745,0,0,0-1.119,1.305c-6.4,8.26-4.669,19.989-2.618,30.243,2.732,13.675,1.192,24.318,15.807,26.749,9.938,1.621,25.744,6.809,35.236,2.067,4.912-2.48,8.382-7.684,13.78-8.916,2.813-.648,5.747-.089,8.584.47l.324.065a37.182,37.182,0,0,1,29.854,39.338l-.292,3.785c-.178,2.237-.251,4.774,1.321,6.379,1.4,1.451,3.623,1.621,5.6,2.026,10.019,2.14,16.155,12.767,17.387,22.948s-1.143,20.4-1.621,30.632,1.41,21.521,9.143,28.241c12.159,10.538,30.64,4.539,46.731,3.575C748.09,525.382,744.418,522.61,742.124,518.833Z" transform="translate(-164.819 -108.534)" opacity="0.1"/>
    <path id="Caminho_110" data-name="Caminho 110" d="M375.074,590.383l49.973-18.644a4.758,4.758,0,0,1,6.12,2.788h0a4.758,4.758,0,0,1-2.788,6.12l-49.973,18.644-10.716-1.07Z" transform="translate(-126.74 -153.043)" fill="#5c5c8e"/>
    <path id="Caminho_111" data-name="Caminho 111" d="M429.652,573.179h0a4.758,4.758,0,0,1-2.8,6.12L376.85,598.007l-8.041-.811-1.159,1.232,10.716,1.07,49.973-18.644a4.758,4.758,0,0,0,2.788-6.12h0a4.758,4.758,0,0,0-1.945-2.375,5.52,5.52,0,0,1,.47.819Z" transform="translate(-126.732 -153.218)" fill="#fff" opacity="0.1"/>
    <path id="Caminho_112" data-name="Caminho 112" d="M304.644,539.52l3.323,8.908-8.787-.884-1.921-.195,2.626-2.788Z" transform="translate(-56.302 -102.18)" fill="#efc8c4"/>
    <path id="Caminho_113" data-name="Caminho 113" d="M370.322,601a2.121,2.121,0,0,1,.519.559.811.811,0,0,1,0,.867,1.726,1.726,0,0,1-.478.349,1.621,1.621,0,0,0-.713,1.2l-1.929-.186Z" transform="translate(-126.745 -158.642)" fill="#727a9c"/>
    <path id="Caminho_114" data-name="Caminho 114" d="M570.154,658.213s43.286-9.087,115.914,2.432l-28.452-20.881L605.852,629.17,569.23,638.9Z" transform="translate(-164.914 -163.978)" fill="#fff"/>
    <path id="Caminho_115" data-name="Caminho 115" d="M570.154,658.213s43.286-9.087,115.914,2.432l-28.452-20.881L605.852,629.17,569.23,638.9Z" transform="translate(-164.914 -163.978)" opacity="0.1"/>
    <path id="Caminho_116" data-name="Caminho 116" d="M560.882,668.62s21.8-58.962,133.747.186l-40.181-25.858S558.191,616.353,547.07,647Z" transform="translate(-160.716 -164.56)" fill="#fff"/>
    <path id="Caminho_117" data-name="Caminho 117" d="M560.869,667.579s21.8-63.04,133.747,1.135l-40.181-28.046S558.146,608.859,547,642.15Z" transform="translate(-160.703 -163.559)" opacity="0.1"/>
    <path id="Caminho_118" data-name="Caminho 118" d="M560.882,667.547s21.8-63.972,133.747.2L654.449,639.7s-96.258-30.9-107.379,2.432Z" transform="translate(-160.716 -163.503)" fill="#fff"/>
    <path id="Caminho_119" data-name="Caminho 119" d="M560.875,666.956s21.8-71.1,133.747,1.094l-40.213-31.556s-96.258-32.424-107.379,4.993Z" transform="translate(-160.709 -162.896)" opacity="0.1"/>
    <path id="Caminho_120" data-name="Caminho 120" d="M560.875,666.7s21.8-71.964,133.747.227l-40.213-31.556s-96.258-32.424-107.379,4.993Z" transform="translate(-160.709 -162.684)" fill="#fff"/>
    <path id="Caminho_121" data-name="Caminho 121" d="M975.464,668.71s-26.871,28.784-2.683,42.767c0,0,3.161,3.81,7.676,1.816,0,0-1.524-1.354,1.532-3.964a18.127,18.127,0,0,0,2.878-3.161,8.916,8.916,0,0,0,1.67-5.4h0s3.518-11.421-7.66-26.247c0,0-1.013-4.961-1.872-5.5l-2.043,6.914s5.131,1.305,7.06,5.212c0,0-6.76-5.309-7.417-4.2-.13.227-.916,3.721-.916,3.721s8.916,2.3,11.7,8.43c0,0-7.206-7.4-12.013-7.109l-.875,5.334s9.541,1.978,12.969,8.835c0,0-7.8-7.482-13.1-7.652l-.154,5.358s9.265,2.107,12.094,7.83c0,0-9.881-7.725-12.045-6.6,0,0,.154,4.937.811,6.225,0,0,6.614,1.621,7.96,5.139,0,0-7.149-4.466-7.766-3.785,0,0,1.921,6.371,4.6,9.087a20.166,20.166,0,0,1-5.577-8.738,11.121,11.121,0,0,0-1.346,6.217s-2.651-2.934.9-7.765c0,0-1.3-5.026-.973-5.82,0,0-4.175,4.272-5.245,8.106,0,0-.811-4.8,5.236-9.492v-5.4s-5.82,5.358-7.02,8.673c0,0-.081-5.026,7.141-10.027l.811-5.245s-5.366,4.231-7.5,7.636c0,0,.924-4.685,7.782-9.127l.948-3.437s-3.858,3.161-4.864,4.166-1.386.811-1.386.811a17.022,17.022,0,0,1,6.647-6.436S975.91,668.9,975.464,668.71Z" transform="translate(-239.438 -171.467)" fill="#6b6b6b" opacity="0.1"/>
    <path id="Caminho_122" data-name="Caminho 122" d="M1121.146,90.91s-35.9,16.212-18.976,38.414c0,0,1.451,4.742,6.379,4.645,0,0-.884-1.84,2.942-3.072a17.759,17.759,0,0,0,3.875-1.808,8.917,8.917,0,0,0,3.623-4.337h0s7.652-9.176,3.056-27.163c0,0,.981-4.969.4-5.8l-4.555,5.593s4.231,3.178,4.507,7.53c0,0-4.183-7.506-5.22-6.728-.211.154-2.278,3.072-2.278,3.072s7.3,5.561,7.547,12.3c0,0-3.794-9.614-8.349-11.2l-2.861,4.588s8.041,5.5,8.576,13.156c0,0-4.312-9.905-9.135-12.11l-2.213,4.864s7.741,5.52,8.106,11.891c0,0-6.136-10.943-8.568-10.732,0,0-1.759,4.6-1.621,6.055,0,0,5.463,4.053,5.366,7.814,0,0-4.864-6.874-5.674-6.485,0,0-.689,6.614.738,10.157a20.121,20.121,0,0,1-1.775-10.213,11.093,11.093,0,0,0-3.64,5.22s-1.313-3.737,3.826-6.825c0,0,.738-5.131,1.346-5.739,0,0-5.5,2.326-7.952,5.423,0,0,1.094-4.742,8.495-6.736l2.108-4.961s-7.433,2.691-9.824,5.285c0,0,1.864-4.669,10.457-6.485l2.764-4.523s-6.582,1.84-9.865,4.15c0,0,2.667-3.956,10.708-5.415l2.2-2.8s-4.782,1.427-6.12,1.962-1.621.219-1.621.219a17.021,17.021,0,0,1,8.665-3.372S1121.438,91.234,1121.146,90.91Z" transform="translate(-264.999 -62.026)" fill="#6b6b6b" opacity="0.1"/>
    <path id="Caminho_123" data-name="Caminho 123" d="M698.114,103.29s-53.937,15.4-27.714,38.325c0,0,2.326,4.864,9.792,4.864,0,0-1.394-1.881,4.377-3.023a34.283,34.283,0,0,0,5.82-1.718,10.384,10.384,0,0,0,5.366-4.288h0s11.348-9.079,3.9-27.382c0,0,1.354-4.993.446-5.852l-6.744,5.528s6.485,3.332,7.028,7.733c0,0-6.541-7.692-8.106-6.939-.316.154-3.372,3.04-3.372,3.04s11.251,5.82,11.762,12.637c0,0-6-9.816-12.969-11.543l-4.215,4.556s12.321,5.78,13.334,13.529c0,0-6.793-10.124-14.153-12.483l-3.242,4.864s11.867,5.788,12.645,12.24c0,0-9.589-11.227-13.269-11.089,0,0-2.537,4.62-2.31,6.088,0,0,8.382,4.28,8.341,8.041,0,0-7.571-7.085-8.819-6.712,0,0-.859,6.671,1.394,10.286,0,0-3.907-5.2-2.967-10.367,0,0-4.288,2.148-5.366,5.172,0,0-2.091-3.8,5.609-6.785,0,0,.981-5.172,1.881-5.771,0,0-8.268,2.2-11.891,5.269,0,0,1.524-4.766,12.678-6.582l3.064-4.961s-11.186,2.529-14.737,5.082c0,0,2.7-4.669,15.669-6.29l4.053-4.5s-9.922,1.678-14.834,3.931c0,0,3.931-3.931,16.066-5.188l3.242-2.772s-7.206,1.313-9.216,1.816-2.432.178-2.432.178a31.929,31.929,0,0,1,12.969-3.178S698.584,103.63,698.114,103.29Z" transform="translate(-182.714 -64.371)" fill="#6b6b6b" opacity="0.1"/>
    <path id="Caminho_124" data-name="Caminho 124" d="M899.934,834.151s27.155-28.525,3.1-42.742c0,0-3.129-3.842-7.66-1.9,0,0,1.516,1.37-1.564,3.956a18.293,18.293,0,0,0-2.91,3.129,8.86,8.86,0,0,0-1.719,5.382h0s-3.64,11.389,7.4,26.32c0,0,.965,4.969,1.816,5.528l2.116-6.9s-5.123-1.354-7.012-5.277c0,0,6.7,5.366,7.368,4.264.138-.227.956-3.7.956-3.7s-8.917-2.432-11.624-8.544c0,0,7.133,7.474,11.948,7.222l.924-5.326s-9.516-2.067-12.9-8.917c0,0,7.725,7.555,13.026,7.782l.2-5.366s-9.249-2.237-12.053-7.992c0,0,9.808,7.83,11.981,6.72,0,0-.105-4.928-.811-6.225,0,0-6.6-1.735-7.911-5.22,0,0,7.109,4.539,7.725,3.858,0,0-1.856-6.387-4.507-9.127a20.157,20.157,0,0,1,5.5,8.787,11.08,11.08,0,0,0,1.4-6.2s2.626,2.967-.973,7.757c0,0,1.248,5.042.916,5.828,0,0,4.215-4.231,5.317-8.017,0,0,.811,4.807-5.326,9.435l-.081,5.4s5.869-5.3,7.1-8.609c0,0,0,5.034-7.239,9.962l-.811,5.236s5.407-4.183,7.571-7.563c0,0-.973,4.669-7.871,9.046l-.981,3.429s3.891-3.121,4.928-4.118,1.394-.811,1.394-.811a16.965,16.965,0,0,1-6.712,6.371S899.529,833.956,899.934,834.151Z" transform="translate(-225.408 -194.244)" fill="#6b6b6b" opacity="0.1"/>
    <path id="Caminho_125" data-name="Caminho 125" d="M575.85,56.306s4.628,39.1,30.924,29.668c0,0,4.953.041,6.347-4.693,0,0-2.026.292-2.043-3.729a18.152,18.152,0,0,0-.559-4.239,8.852,8.852,0,0,0-3.04-4.758h0S601.027,58.486,582.456,57.5c0,0-4.442-2.432-5.415-2.124l3.964,6.023s4.3-3.08,8.536-2.026c0,0-8.414,1.735-7.984,2.951.081.251,2.237,3.1,2.237,3.1s7.579-5.35,14.064-3.526c0,0-10.3.713-13.188,4.58l3.461,4.118s7.668-6.015,15.134-4.223c0,0-10.748,1.135-14.307,5.066l4.037,3.583s7.587-5.723,13.78-4.183c0,0-12.289,2.561-12.824,4.936,0,0,3.867,3.064,5.293,3.388,0,0,5.544-3.98,9.062-2.764,0,0-8.025,2.578-7.9,3.486,0,0,6.1,2.643,9.905,2.351a20.57,20.57,0,0,1-10.27-1.378,11.115,11.115,0,0,0,3.883,5.042s-3.956.122-5.358-5.674c0,0-4.669-2.253-5.066-3.007,0,0,.567,5.942,2.78,9.208,0,0-4.2-2.432-3.875-10.124l-4.053-3.51s.332,7.9,2.083,10.967c0,0-3.891-3.186-3.048-11.932l-3.477-4s-.235,6.825.981,10.651c0,0-2.975-3.729-1.937-11.835L580.932,63.7s-.073,4.985,0,6.428-.276,1.581-.276,1.581a17.022,17.022,0,0,1-.632-9.265S576.255,56.111,575.85,56.306Z" transform="translate(-166.167 -55.29)" fill="#6b6b6b" opacity="0.1"/>
    <path id="Caminho_126" data-name="Caminho 126" d="M809.047,734.844s-37.952-10.538-39.168,17.379c0,0-1.913,4.572,1.937,7.652,0,0,.494-1.978,4.223-.478a18.152,18.152,0,0,0,4.134,1.094,8.859,8.859,0,0,0,5.561-1.021h0s11.754-2.156,19.73-18.919c0,0,3.931-3.186,4.053-4.207l-7.076,1.386s1.216,5.155-1.362,8.673c0,0,1.621-8.446.3-8.511-.268,0-3.721.9-3.721.9s2.075,8.965-2.067,14.274c0,0,3.242-9.808.754-13.942l-5.139,1.694s2.659,9.37-1.832,15.6c0,0,3.032-10.367.73-15.15l-4.815,2.343s2.432,9.192-1.354,14.347c0,0,2.286-12.337.284-13.74,0,0-4.3,2.432-5.131,3.615,0,0,1.621,6.639-.875,9.435,0,0,.648-8.406-.235-8.633,0,0-4.766,4.645-5.934,8.276a20.153,20.153,0,0,1,5.172-8.981,11.132,11.132,0,0,0-6.136,1.678s1.378-3.7,7.3-2.788c0,0,3.858-3.477,4.71-3.55,0,0-5.674-1.735-9.581-.924,0,0,3.875-2.951,10.838.259l4.8-2.432s-7.441-2.683-10.935-2.221c0,0,4.418-2.432,12.159,1.694l5.009-1.71s-6.225-2.8-10.23-3.121c0,0,4.58-1.338,11.689,2.691l3.486-.754s-4.588-1.962-5.958-2.432-1.362-.811-1.362-.811a17.021,17.021,0,0,1,8.779,2.918S809.071,735.29,809.047,734.844Z" transform="translate(-202.828 -183.624)" fill="#6b6b6b" opacity="0.1"/>
  </g>
</svg>
